<svg version="1.1" id="Layer_1" xmlns="http://www.w3.org/2000/svg" x="0" y="0" viewBox="0 0 512 512" xml:space="preserve"><style>.st0{fill:#ffa650}</style><path class="st0" d="M332.3 136.2H179.7c-24.4 0-44.2 19.8-44.2 44.2V333c0 24.4 19.8 44.2 44.2 44.2h152.6c24.4 0 44.2-19.8 44.2-44.2V180.4c0-24.4-19.8-44.2-44.2-44.2zM256 336c-43.7 0-79.3-35.6-79.3-79.3 0-43.7 35.6-79.3 79.3-79.3 43.7 0 79.3 35.6 79.3 79.3 0 43.7-35.6 79.3-79.3 79.3zm81.9-142.2c-10.4 0-18.8-8.4-18.8-18.8 0-10.3 8.4-18.8 18.8-18.8 10.3 0 18.8 8.4 18.8 18.8-.1 10.4-8.5 18.8-18.8 18.8z"/><path class="st0" d="M256 210.9c-25.2 0-45.8 20.5-45.8 45.8 0 25.3 20.6 45.8 45.8 45.8 25.3 0 45.8-20.6 45.8-45.8 0-25.3-20.5-45.8-45.8-45.8z"/><path class="st0" d="M256 0C114.6 0 0 114.6 0 256s114.6 256 256 256 256-114.6 256-256S397.4 0 256 0zm154 333c0 42.8-34.8 77.7-77.7 77.7H179.7c-42.8 0-77.7-34.8-77.7-77.7V180.4c0-42.8 34.9-77.7 77.7-77.7h152.6c42.8 0 77.7 34.9 77.7 77.7V333z"/></svg>