<svg height="512" width="512" xmlns="http://www.w3.org/2000/svg"><path d="M44.206 80.926L255.993 504.5 468.42 79.645 344.177 31.548H159.806z" fill="#ffe09f"/><path d="M348.879 113.658c-31.058-6.782-59.684-42.029-92.879-42.029s-61.821 35.247-92.879 42.029c-31.918 6.97-73.337-12.446-102.252.594L255.993 504.5 451.12 114.247c-28.915-13.03-70.327 6.38-102.241-.589z" fill="#fff0af"/><path d="M256 223.935c-45.116 0-87.708 10.711-125.473 29.632l125.466 250.932 125.469-250.938C343.7 234.644 301.112 223.935 256 223.935z" fill="#fff5d7"/><circle cx="296.081" cy="352.194" fill="#e5646e" r="40.081"/><circle cx="159.806" cy="223.935" fill="#db4655" r="56.113"/><path d="M478.271 59.992C408.753 25.161 333.969 7.5 256 7.5S103.247 25.161 33.728 59.992c-7.914 3.965-11.116 13.598-7.151 21.516 3.965 7.914 13.605 11.12 21.516 7.151C113.115 56.082 183.064 39.565 256 39.565S398.885 56.083 463.907 88.66c7.91 3.969 17.551.763 21.516-7.151 3.964-7.919.763-17.552-7.152-21.517z" fill="#ffc269"/><circle cx="312.113" cy="183.855" fill="#db4655" r="32.065"/><path d="M328.145 199.887c-17.709 0-32.065-14.356-32.065-32.065 0-4.699 1.067-9.128 2.883-13.15-11.134 5.028-18.915 16.172-18.915 29.182 0 17.708 14.355 32.065 32.065 32.065 13.01 0 24.154-7.781 29.182-18.915-4.022 1.817-8.451 2.883-13.15 2.883z" fill="#bd4150"/><path d="M481.631 53.287C411.06 17.928 335.147 0 256 0S100.939 17.928 30.369 53.287c-11.599 5.81-16.308 19.977-10.497 31.581 2.815 5.619 7.651 9.806 13.618 11.79 2.44.811 4.95 1.214 7.448 1.214 1.086 0 2.169-.086 3.244-.237l54.451 108.901a63.396 63.396 0 00-2.439 17.401c0 27.048 16.977 50.193 40.828 59.377l112.271 224.542a7.499 7.499 0 0013.416 0L319.98 393.31c14.147-8.255 23.681-23.589 23.681-41.117a48.79 48.79 0 00-.322-5.602L467.824 97.623c1.079.153 2.166.24 3.253.24 8.969 0 17.035-4.979 21.051-12.995 5.811-11.604 1.101-25.771-10.497-31.581zm-2.914 24.862a8.498 8.498 0 01-7.64 4.713 8.427 8.427 0 01-3.789-.899l-.015-.009-.043-.019a484.785 484.785 0 00-19.269-9.126 7.5 7.5 0 00-6.118 13.696 466.942 466.942 0 0111.986 5.569l-7.589 15.178c-17.227-7.891-37.493-5.043-57.106-2.28-15.329 2.159-29.807 4.2-42.242 1.373-11.777-2.677-23.594-10.599-36.104-18.986-17.038-11.421-34.654-23.23-54.788-23.23s-37.75 11.809-54.786 23.23c-12.511 8.387-24.328 16.309-36.104 18.986-9.433 2.144-20.197 1.354-28.521.428a7.5 7.5 0 00-1.66 14.908c9.496 1.058 21.885 1.933 33.506-.708 14.492-3.294 28.035-12.373 41.132-21.153 15.872-10.64 30.863-20.689 46.434-20.689s30.562 10.05 46.434 20.689c13.097 8.78 26.64 17.859 41.132 21.153 15.122 3.437 31.663 1.107 47.659-1.146 18.053-2.544 35.117-4.925 48.292.872L336.412 326.905a47.809 47.809 0 00-11.745-12.75 7.5 7.5 0 00-9.019 11.985c8.27 6.224 13.013 15.719 13.013 26.053 0 17.965-14.616 32.581-32.581 32.581s-32.58-14.615-32.58-32.58c0-15.436 10.958-28.864 26.056-31.929a7.5 7.5 0 00-2.984-14.7c-22.06 4.478-38.072 24.088-38.072 46.629 0 3.969.496 7.822 1.416 11.51l-15.251 15.251a7.5 7.5 0 000 10.606c1.464 1.465 3.384 2.197 5.303 2.197s3.839-.732 5.303-2.197l11.138-11.138c8.528 12.855 23.123 21.351 39.671 21.351 1.344 0 2.671-.07 3.987-.18L256 487.729l-76.457-152.913 22.716-7.572a7.5 7.5 0 00-4.743-14.23l-24.765 8.218-16.91-33.819c1.313.081 2.632.136 3.965.136 35.076 0 63.613-28.537 63.613-63.613a63.532 63.532 0 00-9.097-32.798 7.5 7.5 0 10-12.847 7.743 48.534 48.534 0 016.944 25.055c0 26.805-21.808 48.613-48.613 48.613-26.806 0-48.613-21.808-48.613-48.613s21.808-48.613 48.613-48.613c7.29 0 14.295 1.572 20.822 4.671 3.743 1.777 8.215.184 9.992-3.558s.184-8.215-3.558-9.992c-8.553-4.062-17.723-6.121-27.256-6.121-22.198 0-41.766 11.437-53.15 28.719L90.22 156.171l15.844-5.281a7.5 7.5 0 00-4.743-14.23l-17.878 5.959-10.97-21.939c7.544-3.322 17.04-4.268 30.548-3.058a7.497 7.497 0 008.14-6.801 7.5 7.5 0 00-6.801-8.139c-11.199-1.004-25.628-1.354-38.595 4.58l-7.595-15.19C120.231 62.205 186.746 47.064 256 47.064c54.417 0 107.493 9.417 157.755 27.989a7.501 7.501 0 005.199-14.071C367.022 41.794 312.196 32.064 256 32.064c-74.113 0-145.193 16.785-211.271 49.892a8.464 8.464 0 01-6.508.467 8.475 8.475 0 01-4.938-4.273c-2.107-4.208-.401-9.345 3.805-11.452C105.554 32.394 179.206 15 256 15s150.446 17.394 218.912 51.698c4.205 2.106 5.912 7.244 3.805 11.451z"/><path d="M312.113 223.419c21.816 0 39.564-17.749 39.564-39.565s-17.749-39.564-39.564-39.564-39.564 17.749-39.564 39.564c-.001 21.817 17.748 39.565 39.564 39.565zm0-64.129c13.545 0 24.564 11.02 24.564 24.564s-11.02 24.565-24.564 24.565-24.564-11.02-24.564-24.565 11.019-24.564 24.564-24.564zm-80.161 0a7.474 7.474 0 005.303-2.197l24.048-24.048c2.929-2.929 2.929-7.677 0-10.606s-7.678-2.929-10.606 0l-24.048 24.048a7.5 7.5 0 000 10.606 7.472 7.472 0 005.303 2.197zm98.906 83.391l-24.048 24.048a7.5 7.5 0 000 10.606c1.464 1.465 3.384 2.197 5.303 2.197s3.839-.732 5.303-2.197l24.048-24.048a7.5 7.5 0 000-10.606 7.497 7.497 0 00-10.606 0zm53.4-59.342a7.5 7.5 0 007.5-7.5V151.79a7.5 7.5 0 00-15 0v24.048a7.5 7.5 0 007.5 7.501zm-140.434 58.404a7.5 7.5 0 00-2.08 10.401l16.032 24.048a7.492 7.492 0 006.247 3.341 7.5 7.5 0 006.233-11.661l-16.032-24.048a7.5 7.5 0 00-10.4-2.081zm-76.517-33.84v-8.016a7.5 7.5 0 00-15 0v8.016a7.5 7.5 0 0015 0zm120.176 147.813a7.5 7.5 0 000 15h.08c4.142 0 7.46-3.358 7.46-7.5s-3.398-7.5-7.54-7.5zM170.536 234.665l-8.016 8.016a7.5 7.5 0 000 10.606c1.464 1.465 3.384 2.197 5.303 2.197s3.839-.732 5.303-2.197l8.016-8.016a7.5 7.5 0 000-10.606 7.497 7.497 0 00-10.606 0zm-34.778-10.213h-.081c-4.142 0-7.46 3.358-7.46 7.5s3.398 7.5 7.541 7.5 7.5-3.358 7.5-7.5-3.358-7.5-7.5-7.5zM307.523 333.17c-4.142 0-7.46 3.358-7.46 7.5s3.398 7.5 7.541 7.5 7.5-3.358 7.5-7.5-3.358-7.5-7.5-7.5z"/></svg>